PathFileType	4	(X/Y/Z)	D:\TRACE\v60_Jaco2_6-2-23\ArmBodyNoDRS_DMP_1-v60.trc
DataRate	CameraRate	NumFrames	NumMarkers	Units	OrigDataRate	OrigDataStartFrame	OrigNumFrames
100.00	100.00	      42	9	mm	100.00	3987	      5315
Frame#	Time	front left toe			Front right toe			aft left toe			aft right toe			Arm			FL body			FR body			AL Body			AR Body			
		X1	Y1	Z1	X2	Y2	Z2	X3	Y3	Z3	X4	Y4	Z4	X5	Y5	Z5	X6	Y6	Z6	X7	Y7	Z7	X8	Y8	Z8	X9	Y9	Z9	

3987	39.860	-133.32623	138.14931	-260.50613	251.37846	17.42705	-291.60925	-79.46650	12.18313	357.31238	276.59167	134.72447	331.15201	35.55978	1086.23547	-649.78180	-32.74818	573.57214	-411.59381	125.95409	574.22192	-423.76846	45.94115	573.43866	531.66486	199.20805	560.53375	519.53491	
3988	39.870	-134.40488	145.56476	-262.41779	251.28806	17.45019	-291.59097	-79.47594	12.14530	357.31436	277.35156	142.22580	328.85950	35.95988	1086.18054	-649.99329	-32.98409	573.47736	-411.99994	126.06547	573.74963	-424.16122	46.21646	573.67426	531.69916	198.94829	560.55804	519.18927	
3989	39.880	-135.86674	151.40425	-264.17438	251.23505	17.41660	-291.56281	-79.41840	12.18983	357.29010	278.71875	147.42871	326.69839	36.23584	1086.00317	-650.36145	-33.02728	573.43481	-412.51331	126.06485	573.63904	-424.38364	45.92509	573.87720	531.16992	198.65182	560.62225	518.81561	
3990	39.890	-137.12418	154.50792	-265.14285	251.28134	17.39034	-291.50201	-79.45055	12.20447	357.29553	279.52023	150.03418	324.77829	37.08043	1085.79871	-650.73877	-32.90839	573.40997	-413.15671	126.01933	573.66296	-424.97037	44.66747	573.82428	530.13678	198.43285	560.72571	518.47937	
3991	39.900	-138.02490	155.00157	-266.42224	251.41588	17.37148	-291.41754	-79.47771	12.20230	357.25101	279.09738	149.86324	323.26297	37.61271	1085.82031	-650.90302	-32.89174	573.33624	-413.79715	125.97790	573.68280	-425.54199	44.30744	573.92462	529.87329	198.23479	560.82556	517.97577	
3992	39.910	-138.25403	152.53896	-266.84467	251.52574	17.40800	-291.35492	-79.57426	12.19802	357.11353	280.23676	147.98924	322.42819	38.67163	1085.81299	-650.89105	-32.35710	573.10541	-413.95334	126.30322	573.64087	-425.91986	44.53355	574.12189	530.03729	197.94020	560.82819	517.83832	
3993	39.920	-138.19821	148.69469	-267.78543	251.39825	17.45729	-291.44409	-79.58810	12.11947	357.19110	280.19827	144.35327	321.75568	39.95866	1085.87183	-650.83887	-32.27786	572.93890	-414.31534	126.45251	573.68964	-426.23663	44.00848	574.05060	529.74164	197.20016	560.96503	517.45044	
3994	39.930	-137.64420	143.85135	-268.69278	251.27815	17.41912	-291.49063	-79.63386	12.13142	357.20157	279.63165	139.87863	320.90598	41.46773	1086.35938	-650.68854	-32.51381	573.00311	-414.80817	126.52467	573.68726	-426.36414	42.96735	573.99487	528.82416	196.73918	560.97357	517.24536	
3995	39.940	-137.29694	138.35909	-270.37064	251.41457	17.55386	-291.32263	-79.58521	12.06020	357.17886	280.56134	134.82330	319.97662	42.64875	1086.85120	-650.57819	-32.73800	573.02368	-415.28641	126.46738	573.59589	-426.60117	42.56075	574.33667	528.74915	196.39496	560.99182	516.98474	
3996	39.950	-136.91089	132.70125	-271.91098	251.47821	17.51632	-291.34616	-79.63703	11.90797	357.04898	280.85074	128.64029	318.80719	43.45466	1087.40710	-650.38129	-32.75159	573.19275	-415.82846	126.30892	573.52704	-427.01785	42.16269	574.07104	528.65143	195.82230	561.10474	516.34296	
3997	39.960	-137.16553	126.36407	-273.96860	251.55429	17.52784	-291.32660	-79.60011	11.77070	356.98669	280.07434	121.81052	317.48239	44.09164	1087.48779	-650.22614	-32.90111	573.10614	-416.35504	126.30772	573.39203	-427.48138	40.90292	573.94690	527.62225	195.13989	561.01727	516.12958	
3998	39.970	-138.57646	119.58733	-274.97562	251.22186	17.38182	-291.45834	-79.67796	11.59133	356.83060	281.39151	114.97758	316.21362	45.02979	1087.74084	-650.26215	-32.54736	572.94647	-416.57224	126.20936	573.62872	-427.90225	40.54711	573.80658	527.27600	194.30290	560.85815	515.95514	
3999	39.980	-138.82391	112.74378	-277.39099	251.19000	17.37011	-291.44196	-79.72430	11.52423	356.78238	280.82043	107.19932	314.83994	45.83924	1087.91675	-650.17480	-32.51574	572.95490	-417.06903	126.25877	573.60645	-428.24463	39.90897	573.78632	526.95166	193.81056	560.78015	515.68536	
4000	39.990	-139.21454	105.19143	-278.95749	251.44168	17.50990	-291.29077	-79.75642	11.48884	356.71817	280.41287	99.31329	313.52921	46.68428	1088.10681	-650.20905	-32.54103	573.01654	-417.51956	126.36526	573.60809	-428.44769	38.66516	573.84827	526.62634	193.40581	560.86096	515.46637	
4001	40.000	-139.04794	97.10308	-280.19611	250.94989	17.40332	-291.54285	-79.75874	11.47884	356.65381	280.98602	91.41064	312.37701	47.73211	1088.41150	-650.45435	-32.66689	573.04230	-418.05655	126.33210	573.66132	-428.78043	38.14122	573.78302	526.39343	193.02490	560.86499	515.12585	
4002	40.010	-139.25642	88.79234	-281.39908	251.22472	17.54888	-291.41776	-79.77145	11.44181	356.62735	281.33047	83.47031	311.21793	48.75117	1088.57056	-650.50305	-32.62302	573.02948	-418.41574	126.29100	573.69495	-429.31018	37.70911	573.87500	525.91595	192.37843	560.88171	514.57367	
4003	40.020	-139.27548	80.36067	-282.40540	251.06227	17.43322	-291.53189	-79.82279	11.37011	356.58014	277.70880	73.83648	309.59628	50.06884	1088.42029	-650.80975	-32.93159	573.02295	-418.89151	126.28707	573.55988	-429.81409	39.22649	574.43860	526.62744	191.53020	560.95538	514.15802	
4004	40.030	-139.94531	71.68365	-282.96408	251.10616	17.49833	-291.52121	-79.94439	11.39339	356.55481	278.53204	66.36819	309.78943	51.55204	1088.32031	-651.12073	-33.14370	572.73016	-419.45007	126.07508	573.34277	-430.18948	38.05005	574.04779	525.37683	190.99358	561.10162	513.73901	
4005	40.040	-140.14458	63.12415	-282.77490	251.16280	17.49449	-291.41187	-79.96268	11.32284	356.56744	277.69724	58.54790	309.42355	52.87489	1088.23511	-651.40588	-33.46569	572.47272	-420.04950	125.82758	573.22125	-430.73203	35.72071	574.16003	524.34247	190.83385	561.28979	513.36389	
4006	40.050	-141.12737	55.82818	-283.01215	251.18752	17.44106	-291.40561	-80.00965	11.36263	356.52313	277.79730	51.15339	309.36694	54.26705	1088.26135	-652.04205	-33.72637	572.44446	-420.64011	125.68581	573.23584	-431.11987	36.08005	574.10834	523.76276	190.47737	561.33466	512.69843	
4007	40.060	-141.57440	48.84516	-282.61951	251.21335	17.52401	-291.40482	-80.05598	11.35738	356.52444	277.01801	44.29870	309.29724	55.48245	1088.34741	-652.60504	-33.91483	572.59875	-421.38412	124.87508	572.89441	-430.96896	36.46260	574.27264	523.94366	189.33363	561.40564	512.23334	
4008	40.070	-141.89742	41.98661	-282.94608	251.08995	17.53854	-291.43707	-80.16306	11.38846	356.51071	276.68280	37.63105	309.67242	56.83754	1087.97644	-653.12622	-33.70046	572.43335	-421.89145	124.59885	572.89386	-431.61203	36.87864	574.89178	524.13953	188.88811	561.32916	511.86526	
4009	40.080	-142.43919	35.18196	-282.66446	250.96408	17.54006	-291.49838	-80.19611	11.32080	356.48862	276.14453	31.40534	309.51810	58.05923	1087.81018	-653.72528	-34.00272	572.35083	-422.60944	124.63518	572.83203	-432.06934	35.39463	574.22406	522.57269	188.37569	561.50470	510.99442	
4010	40.090	-143.01460	28.44974	-283.19608	251.01625	17.52274	-291.49072	-80.26729	11.32420	356.51126	275.81723	24.50940	308.92706	59.00989	1087.66418	-654.21454	-34.29067	572.35486	-423.48785	125.01186	573.43921	-433.42819	34.60386	574.23914	522.06219	187.84290	561.46899	510.47955	
4011	40.100	-143.55276	23.07148	-283.97296	250.96445	17.52268	-291.43481	-80.36470	11.22248	356.49240	275.61331	20.29189	307.27380	60.68589	1087.56812	-655.14258	-34.13013	572.38824	-423.97977	124.82132	573.37823	-434.41074	33.01112	574.47229	520.57892	186.97539	561.56165	510.05518	
4012	40.110	-144.86263	22.77661	-285.56659	250.88010	17.48369	-291.53964	-80.16609	11.20685	356.43173	276.18146	18.44725	306.68158	61.46198	1087.64661	-655.76080	-34.59723	572.55145	-424.84198	124.25421	573.20758	-434.63120	34.52332	575.63562	521.14972	186.33929	562.16241	509.20804	
4013	40.120	-145.25964	21.59593	-285.86017	250.52878	17.46376	-291.61917	-79.92674	11.53586	356.39905	276.38849	18.11657	306.10419	62.80849	1087.55237	-656.60303	-34.23876	572.90149	-425.70300	124.26450	573.64233	-435.14752	32.83976	576.04291	519.75195	185.61682	563.36084	508.75195	
4014	40.130	-144.44852	21.61992	-284.41263	250.77585	19.49407	-291.65256	-80.03271	13.21797	355.86325	276.25653	18.20612	307.13846	64.19632	1087.60046	-658.08954	-34.10884	573.46320	-426.29654	124.79240	574.59497	-436.07526	31.63009	577.36945	519.12311	184.57957	564.90131	508.33112	
4015	40.140	-144.23024	21.28162	-285.13013	248.55823	22.77718	-289.72015	-78.72185	16.00755	357.02426	275.71417	17.82105	307.08441	66.43252	1088.25989	-659.09564	-34.29588	574.43958	-427.21243	124.88293	575.46997	-436.78552	29.90801	577.08356	516.43329	184.03288	565.55817	507.53229	
4016	40.150	-143.72278	21.18691	-285.28049	245.41541	26.39505	-285.96686	-75.81581	19.53155	359.25531	275.80270	17.85543	306.77502	67.91862	1088.74341	-659.69830	-34.15933	575.44562	-428.20865	124.44633	575.83203	-436.93268	29.85435	577.54352	516.23114	183.56740	565.97028	506.77454	
4017	40.160	-144.03065	20.87774	-285.58780	242.23740	34.01289	-284.44229	-72.78274	27.18920	358.90634	275.82721	17.81732	306.77280	69.55555	1089.43640	-660.06818	-34.07267	575.56842	-429.03165	124.44019	576.05347	-437.89130	28.71501	577.55109	514.57239	182.83435	566.49298	505.93750	
4018	40.170	-144.46590	20.95686	-285.67300	241.31544	43.38683	-284.59448	-71.23170	36.83683	357.87170	275.75092	17.84339	306.78259	71.08426	1090.39514	-660.37531	-34.34833	575.76563	-429.98093	124.75662	576.88544	-439.35098	28.48162	577.85419	514.14813	182.05188	566.67175	505.18796	
4019	40.180	-144.52557	20.97040	-285.69550	240.52718	53.98940	-286.60501	-71.59953	47.03280	355.41611	275.75021	17.86506	306.92386	72.44479	1091.01807	-661.09045	-34.62682	575.90643	-430.88232	124.51279	576.95746	-440.05026	28.37710	577.66132	513.27533	181.67725	566.49213	504.33646	
4020	40.190	-144.47302	20.86534	-285.75204	241.76221	65.61964	-289.68280	-73.71665	58.17509	352.12964	275.75806	17.62115	306.75256	73.86172	1091.27026	-661.29596	-34.97176	575.95941	-431.33917	124.32777	577.05200	-440.94919	28.52396	577.03619	512.30176	181.99619	565.53680	503.62518	
4021	40.200	-144.69092	20.68509	-285.76785	243.18919	77.88568	-293.08051	-77.16324	69.35601	348.89288	275.64832	17.22270	306.60419	75.10542	1091.02185	-661.79547	-35.48141	576.23639	-431.92764	123.44012	576.85425	-441.16794	28.57200	576.12006	511.59485	181.89479	564.67126	502.63156	
4022	40.210	-144.83794	20.41738	-285.69662	243.82851	89.34289	-297.13849	-79.47557	80.33157	345.47287	275.63449	17.14388	306.57898	75.58410	1090.99622	-661.79437	-35.68558	576.23083	-432.74011	122.99481	576.76880	-442.04071	29.09844	574.99445	511.39908	182.97696	563.61804	501.95300	
4023	40.220	-144.93794	20.38038	-285.67203	244.27374	100.96219	-300.87408	-81.47607	91.44032	341.73917	275.62570	17.08562	306.50519	75.93286	1091.01892	-661.89600	-35.63755	576.03143	-433.16055	122.71539	576.54492	-442.28268	29.02750	574.16394	510.35068	182.38774	562.62988	501.10114	
4024	40.230	-144.95029	20.37701	-285.73947	244.25615	112.05631	-304.43298	-82.57098	102.36192	338.51053	275.69916	16.95238	306.42337	76.21239	1091.30139	-662.06964	-35.91064	576.26385	-434.03845	122.65967	576.96387	-443.54633	29.28847	573.24500	509.65814	182.05208	562.04724	500.48856	
4025	40.240	-144.98933	20.42141	-285.80966	244.56429	122.36136	-307.64322	-82.25792	112.40940	335.32193	275.71790	16.91269	306.36060	76.99158	1091.71851	-661.93988	-35.98082	576.31976	-434.67554	122.91749	577.21881	-444.43500	30.21235	572.47040	509.30176	182.79100	561.23322	499.60034	
4026	40.250	-145.00729	20.41703	-285.79272	244.12750	131.76820	-310.65909	-82.03365	122.04684	332.03464	275.70386	16.89265	306.35422	77.38654	1091.86511	-662.13892	-36.12351	576.30872	-435.27509	123.13055	577.20465	-445.04315	30.48274	571.85376	508.83731	183.09937	560.33862	499.01474	
4027	40.260	-145.03189	20.25171	-285.71979	243.74591	140.16423	-313.59094	-81.21908	129.71439	329.35345	275.89368	16.78742	306.36325	77.80183	1091.71619	-662.34467	-36.21899	576.05103	-435.40732	122.85084	577.07349	-445.64178	30.51384	571.12433	507.82315	183.57227	559.69012	498.46411	
4028	40.270	-145.09232	20.20593	-285.68268	245.09306	147.35696	-315.98795	-80.82424	135.59235	327.23123	275.90717	16.72736	306.24118	78.52667	1091.69006	-662.44965	-36.48989	576.06909	-435.69202	122.11552	576.83051	-445.76871	31.12357	570.26874	507.25281	183.69400	558.96210	497.62967	
